<?xml version="1.0" standalone="no"?>
<!DOCTYPE svg PUBLIC "-//W3C//DTD SVG 20010904//EN"
 "http://www.w3.org/TR/2001/REC-SVG-20010904/DTD/svg10.dtd">
<svg version="1.0" xmlns="http://www.w3.org/2000/svg"
 width="217.000000pt" height="175.000000pt" viewBox="0 0 217.000000 175.000000"
 preserveAspectRatio="xMidYMid meet">

<g transform="translate(0.000000,175.000000) scale(0.100000,-0.100000)"
fill="#20581B" stroke="none">
<path d="M173 1633 c-10 -4 -13 -163 -13 -749 l0 -744 833 2 832 3 63 34 c233
126 280 421 97 607 -50 50 -145 104 -184 104 -34 0 -24 15 27 43 161 88 234
288 167 458 -50 127 -160 216 -295 238 -65 11 -1502 15 -1527 4z m617 -728 l0
-225 -30 0 -30 0 0 225 0 225 30 0 30 0 0 -225z m651 192 c29 -19 34 -29 34
-61 0 -55 -34 -79 -120 -84 -85 -6 -127 3 -159 33 -36 33 -35 77 2 103 40 28
49 30 133 31 64 1 82 -3 110 -22z m-834 -14 c14 -9 32 -32 39 -50 18 -42 18
-144 0 -188 -24 -57 -96 -81 -155 -50 -79 40 -80 247 -2 290 36 19 86 19 118
-2z m408 -172 c12 -39 -23 -69 -59 -49 -16 9 -22 49 -9 61 14 15 62 7 68 -12z
m515 -6 l0 -25 -205 0 c-192 0 -205 1 -205 18 0 10 3 22 7 25 3 4 96 7 205 7
l198 0 0 -25z m-50 -140 l0 -75 -155 0 -155 0 0 75 0 75 155 0 155 0 0 -75z
m-480 25 c23 -14 16 -91 -11 -112 -30 -25 -49 -23 -49 7 0 19 5 25 22 25 l22
0 -22 16 c-46 32 -10 95 38 64z"/>
<path d="M1248 1059 c-10 -5 -18 -16 -18 -24 0 -23 34 -35 95 -35 61 0 95 12
95 35 0 8 -9 19 -19 25 -25 13 -131 13 -153 -1z"/>
<path d="M516 1028 c-47 -72 -17 -212 42 -194 26 9 42 48 42 107 0 91 -49 141
-84 87z"/>
<path d="M1240 770 l0 -31 88 3 c85 3 87 3 87 28 0 25 -2 25 -87 28 l-88 3 0
-31z"/>
</g>
</svg>
