<?xml version="1.0" encoding="UTF-8"?>
<svg xmlns="http://www.w3.org/2000/svg" xmlns:xlink="http://www.w3.org/1999/xlink" width="px" height="px" viewBox="0 0 24 24" version="1.1">
<g id="surface1">
<path style=" stroke:none;fill-rule:nonzero;fill:rgb(0%,0%,0%);fill-opacity:1;" d="M 9.75 10.5 L 2.25 10.5 C 1.835938 10.5 1.5 10.164062 1.5 9.75 L 1.5 2.25 C 1.5 1.835938 1.835938 1.5 2.25 1.5 L 9.75 1.5 C 10.164062 1.5 10.5 1.835938 10.5 2.25 L 10.5 9.75 C 10.5 10.164062 10.164062 10.5 9.75 10.5 Z M 3 9 L 9 9 L 9 3 L 3 3 Z M 3 9 "/>
<path style=" stroke:none;fill-rule:nonzero;fill:rgb(255,56,92);fill-opacity:1;" d="M 21.75 10.5 L 14.25 10.5 C 13.835938 10.5 13.5 10.164062 13.5 9.75 L 13.5 2.25 C 13.5 1.835938 13.835938 1.5 14.25 1.5 L 21.75 1.5 C 22.164062 1.5 22.5 1.835938 22.5 2.25 L 22.5 9.75 C 22.5 10.164062 22.164062 10.5 21.75 10.5 Z M 15 9 L 21 9 L 21 3 L 15 3 Z M 15 9 "/>
<path style=" stroke:none;fill-rule:nonzero;fill:rgb(0%,0%,0%);fill-opacity:1;" d="M 9.75 22.5 L 2.25 22.5 C 1.835938 22.5 1.5 22.164062 1.5 21.75 L 1.5 14.25 C 1.5 13.835938 1.835938 13.5 2.25 13.5 L 9.75 13.5 C 10.164062 13.5 10.5 13.835938 10.5 14.25 L 10.5 21.75 C 10.5 22.164062 10.164062 22.5 9.75 22.5 Z M 3 21 L 9 21 L 9 15 L 3 15 Z M 3 21 "/>
<path style=" stroke:none;fill-rule:nonzero;fill:rgb(0%,0%,0%);fill-opacity:1;" d="M 21.75 22.5 L 14.25 22.5 C 13.835938 22.5 13.5 22.164062 13.5 21.75 L 13.5 14.25 C 13.5 13.835938 13.835938 13.5 14.25 13.5 L 21.75 13.5 C 22.164062 13.5 22.5 13.835938 22.5 14.25 L 22.5 21.75 C 22.5 22.164062 22.164062 22.5 21.75 22.5 Z M 15 21 L 21 21 L 21 15 L 15 15 Z M 15 21 "/>
</g>
</svg>
